<svg width="160" height="29" viewBox="0 0 160 29" fill="none" xmlns="http://www.w3.org/2000/svg">
<g clip-path="url(#clip0_1310_9895)">
<path d="M1.22241 0H0V28.9524H28.9474V0H1.22241ZM27.725 27.7293H1.22241V1.2231H27.7193V27.7236L27.725 27.7293Z" fill="#2E3340"/>
<path d="M14.4086 23.2729C18.3135 23.2729 21.0073 21.2061 21.6921 17.163H20.4471C19.8245 20.351 17.5608 22.1857 14.4086 22.1857C12.4052 22.1857 10.764 21.3306 9.68307 19.8188C8.7323 18.5051 8.20599 16.795 8.20599 14.5979H21.8279V14.0373C21.8279 10.9852 20.9734 9.04301 19.5642 7.56509C18.3192 6.28537 16.4799 5.59454 14.5444 5.59454C12.3429 5.59454 10.6734 6.31934 9.42274 7.63304C7.81549 9.30915 6.96094 11.8063 6.96094 14.5639C6.96094 17.3216 7.54951 18.9977 8.60214 20.4756C9.5529 21.8233 11.4261 23.2672 14.4142 23.2672L14.4086 23.2729ZM10.1754 8.62965C11.4205 7.28197 12.8013 6.69307 14.5388 6.69307C16.0498 6.69307 17.5608 7.31594 18.6418 8.46543C19.8585 9.74516 20.515 11.4552 20.5772 13.522H8.20599C8.30219 11.812 9.0945 9.81311 10.1754 8.62965Z" fill="#2E3340"/>
<path d="M41.7997 5.60588C39.1398 5.60588 36.6158 7.11777 35.7612 9.61493H35.6933V6.00226H34.4482V22.8822H35.6933V13.7825C35.6933 9.58096 37.991 6.68742 41.7657 6.68742C44.8501 6.68742 46.5592 8.3975 46.5592 12.0385V22.8765H47.8042V12.1687C47.8042 10.1019 47.4081 8.68628 46.6554 7.63872C45.6367 6.25707 44.0295 5.60022 41.7997 5.60022V5.60588Z" fill="#2E3340"/>
<path d="M63.5595 5.60588C61.3581 5.60588 59.6886 6.33068 58.4379 7.64438C56.8306 9.32048 55.9761 11.8176 55.9761 14.5753C55.9761 17.3329 56.5646 19.009 57.6173 20.4869C58.568 21.8346 60.4413 23.2786 63.4294 23.2786C67.3343 23.2786 70.0281 21.2117 70.7186 17.1687H69.4735C68.851 20.3567 66.5873 22.1914 63.435 22.1914C61.4316 22.1914 59.7904 21.3363 58.7095 19.8244C57.7588 18.5107 57.2324 16.8007 57.2324 14.6036H70.8544V14.043C70.8544 10.9909 69.9998 9.04868 68.5907 7.57077C67.3456 6.29104 65.5064 5.60022 63.5709 5.60022L63.5595 5.60588ZM57.2268 13.5221C57.323 11.812 58.1153 9.81312 59.1962 8.62966C60.4413 7.28198 61.8221 6.69308 63.5595 6.69308C65.0706 6.69308 66.5816 7.31596 67.6625 8.46545C68.8793 9.74517 69.5358 11.4552 69.598 13.5221H57.2211H57.2268Z" fill="#2E3340"/>
<path d="M94.9066 21.4382H94.8444L90.215 6.00226H88.5399L83.9445 21.4382H83.8823L79.1228 6.00226H77.7759L83.1239 22.8822H84.7029L89.3605 7.57643H89.4284L94.0577 22.8822H95.597L101.013 6.00226H99.6321L94.9066 21.4382Z" fill="#2E3340"/>
<path d="M111.222 0.747437H109.977V6.00224H106.859V7.08378H109.977V19.2355C109.977 21.7327 111.222 22.9161 113.95 22.9161C114.244 22.9161 114.51 22.9161 114.867 22.8822V21.8006H114.505C113.124 21.8006 112.501 21.7044 111.947 21.2117C111.488 20.8153 111.222 20.0622 111.222 19.009V7.08378H114.901V6.00224H111.222V0.747437Z" fill="#2E3340"/>
<path d="M130.062 5.60587C125.269 5.60587 122.314 9.45071 122.314 14.4394C122.314 19.428 125.235 23.2729 130.062 23.2729C134.889 23.2729 137.81 19.53 137.81 14.4394C137.81 9.34878 134.855 5.60587 130.062 5.60587ZM130.062 22.1913C125.631 22.1913 123.565 18.2502 123.565 14.4394C123.565 10.1019 126.061 6.6874 130.062 6.6874C134.063 6.6874 136.559 10.0679 136.559 14.4394C136.559 18.8108 134.001 22.1913 130.062 22.1913Z" fill="#2E3340"/>
<path d="M158.851 7.64437C157.833 6.26272 156.225 5.60587 153.995 5.60587C151.336 5.60587 148.812 7.11775 147.957 9.61492H147.889V6.00224H146.644V22.8822H147.889V13.7825C147.889 9.58094 150.187 6.6874 153.962 6.6874C157.046 6.6874 158.755 8.39748 158.755 12.0385V22.8765H160V12.1687C160 10.1019 159.604 8.68627 158.851 7.6387V7.64437Z" fill="#2E3340"/>
</g>
<defs>
<clipPath id="clip0_1310_9895">
<rect width="160" height="28.9524" fill="white"/>
</clipPath>
</defs>
</svg>
